<svg xmlns="http://www.w3.org/2000/svg" xmlns:xlink="http://www.w3.org/1999/xlink" width="120" zoomAndPan="magnify" viewBox="0 0 90 60" height="80" preserveAspectRatio="xMidYMid meet" version="1.0"><path fill="#ffffff" d="M 21.296875 22.167969 L 29.542969 22.167969 C 33.003906 22.167969 34.371094 18.964844 34.371094 15.765625 C 34.421875 13.820312 34.105469 11.878906 33.683594 10.566406 L 13.164062 10.566406 C 10.277344 10.566406 6.964844 11.40625 5.449219 14.082031 C 5.8125 15.765625 6.128906 19.4375 6.128906 24.425781 L 6.128906 38.855469 C 6.128906 44.898438 7.386719 48.359375 14.371094 48.359375 L 29.121094 48.359375 C 32.53125 48.359375 33.949219 45.207031 33.949219 41.957031 C 33.949219 40.015625 33.683594 38.070312 33.269531 36.757812 L 21.351562 36.757812 C 21.296875 36.078125 21.296875 35.289062 21.296875 34.554688 L 21.296875 33.816406 L 27.128906 33.816406 C 30.589844 33.816406 31.957031 32.457031 32.007812 29.253906 C 32.007812 27.3125 31.691406 26.417969 31.324219 25.105469 L 21.296875 25.105469 Z M 21.296875 22.167969 " fill-opacity="1" fill-rule="nonzero"/><path fill="#ffffff" d="M 64.234375 31.613281 C 63.917969 31.613281 63.601562 31.5625 63.234375 31.5625 C 61.921875 31.5625 60.402344 31.71875 59.25 31.984375 C 59.039062 35.128906 57.882812 36.917969 55.726562 36.96875 C 53.101562 37.023438 51.949219 34.714844 51.949219 29.464844 C 51.949219 24.214844 53.101562 21.90625 55.726562 21.957031 C 57.882812 22.011719 59.039062 23.792969 59.25 26.945312 C 60.925781 27.261719 62.554688 27.3125 64.234375 27.3125 C 68.589844 27.101562 71.898438 24.476562 71.742188 19.703125 C 71.636719 16.179688 68.800781 13.609375 65.601562 12.039062 C 62.5 10.566406 58.984375 10.410156 56.203125 10.410156 C 51.269531 10.460938 46.335938 11.722656 42.714844 15.238281 C 39.085938 18.648438 36.988281 23.738281 36.988281 29.464844 C 36.988281 35.183594 39.085938 40.273438 42.714844 43.691406 C 46.335938 47.207031 51.269531 48.464844 56.203125 48.519531 C 58.984375 48.519531 62.5 48.203125 65.601562 46.730469 C 68.800781 45.160156 71.792969 42.273438 71.898438 38.808594 C 72.050781 33.976562 68.589844 31.824219 64.234375 31.613281 Z M 64.234375 31.613281 " fill-opacity="1" fill-rule="nonzero"/><path fill="#ffbd59" d="M 81.242188 48.359375 C 84.871094 48.359375 88.121094 46.316406 88.121094 42.429688 C 88.015625 38.125 85.023438 36.441406 81.039062 36.441406 C 79.304688 36.441406 77.515625 36.917969 76.414062 37.753906 C 74.945312 38.855469 74.105469 40.484375 74.160156 42.429688 C 74.265625 46.574219 77.359375 48.359375 81.242188 48.359375 Z M 81.242188 48.359375 " fill-opacity="1" fill-rule="nonzero"/></svg>