<svg xmlns="http://www.w3.org/2000/svg" xmlns:xlink="http://www.w3.org/1999/xlink" width="100" zoomAndPan="magnify" viewBox="0 0 75 60" height="80" preserveAspectRatio="xMidYMid meet" version="1.0"><defs><g/></defs><g fill="#000000" fill-opacity="1"><g transform="translate(8.923828, 38.625)"><g><path d="M 11.757812 -17.460938 L 17.253906 -17.460938 C 19.5625 -17.460938 20.472656 -19.597656 20.472656 -21.730469 C 20.507812 -23.027344 20.296875 -24.320312 20.015625 -25.195312 L 6.335938 -25.195312 C 4.410156 -25.195312 2.203125 -24.636719 1.191406 -22.851562 C 1.433594 -21.730469 1.644531 -19.28125 1.644531 -15.957031 L 1.644531 -6.335938 C 1.644531 -2.308594 2.484375 0 7.140625 0 L 16.972656 0 C 19.246094 0 20.191406 -2.101562 20.191406 -4.269531 C 20.191406 -5.5625 20.015625 -6.859375 19.738281 -7.734375 L 11.792969 -7.734375 C 11.757812 -8.1875 11.757812 -8.714844 11.757812 -9.203125 L 11.757812 -9.695312 L 15.644531 -9.695312 C 17.953125 -9.695312 18.863281 -10.601562 18.898438 -12.738281 C 18.898438 -14.03125 18.6875 -14.628906 18.441406 -15.503906 L 11.757812 -15.503906 Z M 11.757812 -17.460938 "/></g></g></g><g fill="#000000" fill-opacity="1"><g transform="translate(30.304, 38.625)"><g><path d="M 19.003906 -11.164062 C 18.792969 -11.164062 18.582031 -11.199219 18.335938 -11.199219 C 17.460938 -11.199219 16.449219 -11.09375 15.679688 -10.917969 C 15.539062 -8.820312 14.769531 -7.628906 13.332031 -7.59375 C 11.582031 -7.558594 10.8125 -9.097656 10.8125 -12.597656 C 10.8125 -16.097656 11.582031 -17.636719 13.332031 -17.601562 C 14.769531 -17.566406 15.539062 -16.378906 15.679688 -14.277344 C 16.796875 -14.066406 17.882812 -14.03125 19.003906 -14.03125 C 21.90625 -14.171875 24.113281 -15.921875 24.007812 -19.105469 C 23.9375 -21.453125 22.046875 -23.167969 19.914062 -24.214844 C 17.847656 -25.195312 15.503906 -25.300781 13.648438 -25.300781 C 10.359375 -25.265625 7.070312 -24.425781 4.65625 -22.082031 C 2.238281 -19.808594 0.839844 -16.414062 0.839844 -12.597656 C 0.839844 -8.785156 2.238281 -5.390625 4.65625 -3.113281 C 7.070312 -0.769531 10.359375 0.0703125 13.648438 0.105469 C 15.503906 0.105469 17.847656 -0.105469 19.914062 -1.085938 C 22.046875 -2.132812 24.042969 -4.058594 24.113281 -6.367188 C 24.214844 -9.589844 21.90625 -11.023438 19.003906 -11.164062 Z M 19.003906 -11.164062 "/></g></g></g><g fill="#ffbd59" fill-opacity="1"><g transform="translate(55.083982, 38.625)"><g><path d="M 5.5625 0 C 7.980469 0 10.148438 -1.363281 10.148438 -3.953125 C 10.078125 -6.824219 8.082031 -7.945312 5.425781 -7.945312 C 4.269531 -7.945312 3.078125 -7.628906 2.34375 -7.070312 C 1.363281 -6.335938 0.804688 -5.25 0.839844 -3.953125 C 0.910156 -1.191406 2.972656 0 5.5625 0 Z M 5.5625 0 "/></g></g></g></svg>